<svg xmlns="http://www.w3.org/2000/svg" xmlns:xlink="http://www.w3.org/1999/xlink" width="500" zoomAndPan="magnify" viewBox="0 0 375 374.999991" height="500" preserveAspectRatio="xMidYMid meet" version="1.0"><defs><g/></defs><rect x="-37.5" width="450" fill="#ffffff" y="-37.499999" height="449.999989" fill-opacity="1"/><rect x="-37.5" width="450" fill="#000000" y="-37.499999" height="449.999989" fill-opacity="1"/><g fill="#8c52ff" fill-opacity="1"><g transform="translate(88.133787, 203.725035)"><g><path d="M 14.1875 -12.578125 L 14.359375 -12.03125 L 27.359375 -13.59375 L 27.359375 0 L 0.84375 0 L 0.84375 -9.953125 L 13.34375 -16.859375 L 13.21875 -17.40625 L 1.390625 -15.84375 L 1.390625 -29.65625 L 26.171875 -29.65625 L 26.171875 -19.703125 Z M 14.1875 -12.578125 "/></g></g></g><g fill="#8c52ff" fill-opacity="1"><g transform="translate(116.339913, 203.725035)"><g><path d="M 14.78125 0.640625 C 10.488281 0.640625 7.132812 -0.410156 4.71875 -2.515625 C 2.300781 -4.617188 1.09375 -7.664062 1.09375 -11.65625 L 1.09375 -29.65625 L 11.6875 -29.65625 L 10.765625 -17.625 C 10.648438 -16.007812 10.921875 -14.722656 11.578125 -13.765625 C 12.242188 -12.804688 13.3125 -12.328125 14.78125 -12.328125 C 16.28125 -12.328125 17.367188 -12.804688 18.046875 -13.765625 C 18.722656 -14.722656 18.988281 -16.007812 18.84375 -17.625 L 17.921875 -29.65625 L 28.515625 -29.65625 L 28.515625 -11.65625 C 28.515625 -7.726562 27.3125 -4.695312 24.90625 -2.5625 C 22.507812 -0.425781 19.132812 0.640625 14.78125 0.640625 Z M 14.78125 0.640625 "/></g></g></g><g fill="#8c52ff" fill-opacity="1"><g transform="translate(145.943636, 203.725035)"><g><path d="M 18.515625 0 L 1.1875 0 L 1.1875 -29.65625 L 17.40625 -29.65625 C 19.613281 -29.65625 21.550781 -29.378906 23.21875 -28.828125 C 24.882812 -28.273438 26.1875 -27.445312 27.125 -26.34375 C 28.070312 -25.25 28.546875 -23.867188 28.546875 -22.203125 C 28.546875 -20.109375 27.773438 -18.46875 26.234375 -17.28125 C 24.703125 -16.09375 22.523438 -15.5 19.703125 -15.5 L 19.703125 -14.828125 C 22.890625 -14.828125 25.34375 -14.28125 27.0625 -13.1875 C 28.789062 -12.101562 29.65625 -10.421875 29.65625 -8.140625 C 29.65625 -5.597656 28.648438 -3.601562 26.640625 -2.15625 C 24.640625 -0.71875 21.929688 0 18.515625 0 Z M 10.796875 -18.640625 L 10.796875 -16.015625 L 16.390625 -16.015625 C 17.128906 -16.015625 17.707031 -16.117188 18.125 -16.328125 C 18.550781 -16.535156 18.765625 -16.867188 18.765625 -17.328125 C 18.765625 -17.773438 18.53125 -18.101562 18.0625 -18.3125 C 17.601562 -18.53125 17.003906 -18.640625 16.265625 -18.640625 Z M 10.796875 -13.984375 L 10.796875 -11.09375 L 16.78125 -11.09375 C 18.414062 -11.09375 19.234375 -11.570312 19.234375 -12.53125 C 19.234375 -13.5 18.414062 -13.984375 16.78125 -13.984375 Z M 10.796875 -13.984375 "/></g></g></g><g fill="#8c52ff" fill-opacity="1"><g transform="translate(176.14029, 203.725035)"><g><path d="M 15.328125 0.546875 C 12.503906 0.546875 10 0.175781 7.8125 -0.5625 C 5.625 -1.3125 3.910156 -2.359375 2.671875 -3.703125 C 1.429688 -5.046875 0.8125 -6.609375 0.8125 -8.390625 C 0.8125 -9.597656 1.117188 -10.703125 1.734375 -11.703125 C 2.359375 -12.710938 3.195312 -13.5625 4.25 -14.25 C 5.3125 -14.945312 6.460938 -15.421875 7.703125 -15.671875 L 7.703125 -16.015625 C 6.609375 -16.265625 5.625 -16.695312 4.75 -17.3125 C 3.875 -17.9375 3.171875 -18.6875 2.640625 -19.5625 C 2.117188 -20.445312 1.859375 -21.367188 1.859375 -22.328125 C 1.859375 -23.929688 2.453125 -25.332031 3.640625 -26.53125 C 4.828125 -27.738281 6.4375 -28.679688 8.46875 -29.359375 C 10.5 -30.035156 12.785156 -30.375 15.328125 -30.375 C 17.898438 -30.375 20.207031 -30.035156 22.25 -29.359375 C 24.300781 -28.679688 25.921875 -27.738281 27.109375 -26.53125 C 28.296875 -25.332031 28.890625 -23.929688 28.890625 -22.328125 C 28.890625 -21.367188 28.628906 -20.445312 28.109375 -19.5625 C 27.585938 -18.6875 26.878906 -17.9375 25.984375 -17.3125 C 25.097656 -16.695312 24.085938 -16.265625 22.953125 -16.015625 L 22.953125 -15.671875 C 24.171875 -15.441406 25.300781 -14.984375 26.34375 -14.296875 C 27.394531 -13.609375 28.242188 -12.753906 28.890625 -11.734375 C 29.535156 -10.710938 29.859375 -9.597656 29.859375 -8.390625 C 29.859375 -6.578125 29.242188 -5 28.015625 -3.65625 C 26.785156 -2.320312 25.082031 -1.285156 22.90625 -0.546875 C 20.738281 0.179688 18.210938 0.546875 15.328125 0.546875 Z M 15.328125 -16.1875 C 16.429688 -16.1875 17.328125 -16.335938 18.015625 -16.640625 C 18.710938 -16.953125 19.0625 -17.390625 19.0625 -17.953125 C 19.0625 -18.546875 18.703125 -18.984375 17.984375 -19.265625 C 17.265625 -19.554688 16.378906 -19.703125 15.328125 -19.703125 C 14.285156 -19.703125 13.425781 -19.554688 12.75 -19.265625 C 12.070312 -18.984375 11.734375 -18.546875 11.734375 -17.953125 C 11.734375 -17.390625 12.070312 -16.953125 12.75 -16.640625 C 13.425781 -16.335938 14.285156 -16.1875 15.328125 -16.1875 Z M 15.328125 -10.25 C 16.578125 -10.25 17.566406 -10.414062 18.296875 -10.75 C 19.035156 -11.09375 19.40625 -11.585938 19.40625 -12.234375 C 19.40625 -12.890625 19.019531 -13.367188 18.25 -13.671875 C 17.488281 -13.984375 16.515625 -14.140625 15.328125 -14.140625 C 14.148438 -14.140625 13.175781 -13.984375 12.40625 -13.671875 C 11.644531 -13.367188 11.265625 -12.890625 11.265625 -12.234375 C 11.265625 -11.554688 11.640625 -11.054688 12.390625 -10.734375 C 13.140625 -10.410156 14.117188 -10.25 15.328125 -10.25 Z M 15.328125 -10.25 "/></g></g></g><g fill="#8c52ff" fill-opacity="1"><g transform="translate(206.802809, 203.725035)"><g><path d="M 25.796875 -17.75 L 10.765625 -18.171875 L 10.765625 -16.4375 L 21.859375 -16.859375 L 21.859375 -13.046875 L 10.765625 -13.46875 L 10.765625 -11.65625 L 26.734375 -12.40625 L 26.734375 0 L 1.1875 0 L 1.1875 -29.65625 L 25.796875 -29.65625 Z M 25.796875 -17.75 "/></g></g></g><g fill="#8c52ff" fill-opacity="1"><g transform="translate(234.331307, 203.725035)"><g><path d="M 26.390625 -29.65625 L 26.515625 -16.5625 L 17.28125 -16.984375 L 19.3125 0 L 7.96875 0 L 9.953125 -16.984375 L 0.765625 -16.5625 L 0.84375 -29.65625 Z M 26.390625 -29.65625 "/></g></g></g><g fill="#8c52ff" fill-opacity="1"><g transform="translate(261.6057, 203.725035)"><g><path d="M 0.84375 -16.78125 L 0.84375 -29.65625 L 24.40625 -29.65625 L 24.40625 -16.78125 L 16.90625 -17.375 L 17.03125 -12.28125 L 24.40625 -12.875 L 24.40625 0 L 0.84375 0 L 0.84375 -12.875 L 8.21875 -12.28125 L 8.34375 -17.375 Z M 0.84375 -16.78125 "/></g></g></g></svg>